<svg width="43" height="12" viewBox="0 0 43 12" fill="none" xmlns="http://www.w3.org/2000/svg">
<path fill-rule="evenodd" clip-rule="evenodd" d="M3.89795 0.00196209C4.27454 -0.000290773 5.39372 -0.10109 5.86779 1.49888C6.18712 2.57663 6.6958 4.34205 7.39383 6.79512H7.67811C8.42669 4.20892 8.94092 2.44351 9.22081 1.49888C9.69981 -0.117757 10.8973 0.00199377 11.3763 0.00199377L15.0719 0.00199838V11.498H11.3053V4.72323H11.0527L8.95294 11.498H6.119L4.01926 4.71821H3.76668V11.498H0V0.00199838L3.89795 0.00196209ZM20.4808 0.00199838V6.78185H20.7813L23.3354 1.20683C23.8312 0.0973805 24.888 0.00199838 24.888 0.00199838H28.533V11.4981H24.6876V4.71821H24.3871L21.8831 10.2932C21.3873 11.3977 20.2805 11.4981 20.2805 11.4981H16.6355V0.00199838H20.4808ZM41.8242 5.465C41.2878 6.98499 39.6034 8.07357 37.7384 8.07357H33.7058V11.4981H30.0491V5.465H41.8242Z" fill="white"/>
<path fill-rule="evenodd" clip-rule="evenodd" d="M37.9168 0.00390625H29.8594C30.0511 2.56332 32.2552 4.75435 34.5369 4.75435H42.0803C42.5156 2.62717 41.017 0.00390625 37.9168 0.00390625Z" fill="white"/>
</svg>
