<svg width="43" height="12" viewBox="0 0 43 12" fill="none" xmlns="http://www.w3.org/2000/svg">
<path fill-rule="evenodd" clip-rule="evenodd" d="M10.4887 3.79273C9.59071 5.87879 8.78664 7.47082 8.70208 7.33034C8.61728 7.19006 8.25036 5.73708 7.88679 4.10158C7.52298 2.46607 7.07509 0.920189 6.89163 0.666506C6.57129 0.223331 6.42796 0.205489 3.27908 0.215743L-9.89656e-09 0.226407L1.43327 0.699524C2.22156 0.959769 3.04474 1.23847 3.26259 1.31886C3.49431 1.40417 3.82205 1.99152 4.05161 2.73206C4.26755 3.42892 4.96125 5.66018 5.59333 7.69046L6.74257 11.3819L8.51265 11.4409L10.2825 11.5L12.8359 6.10889C14.2402 3.14386 15.4585 0.55638 15.5433 0.358889C15.6816 0.037325 15.512 6.78052e-07 13.9096 6.08009e-07L12.1214 5.29842e-07L10.4887 3.79273ZM16.9651 0.666507C16.8903 1.03319 16.4568 3.31715 16.002 5.74221C15.5471 8.16726 15.115 10.4512 15.0417 10.8179L14.9081 11.4844L16.5867 11.4844C18.1313 11.4844 18.2749 11.4477 18.3888 11.023C18.546 10.4367 20.4241 0.437434 20.4241 0.186828C20.4241 0.0840832 19.6764 8.60081e-07 18.7627 8.20142e-07L17.1015 7.47531e-07L16.9651 0.666507ZM24.8732 0.301262C22.9208 0.898656 21.6161 2.62521 21.9526 4.16577C22.139 5.01848 23.4306 6.09966 25.1632 6.85353C26.8255 7.57664 27.126 8.38465 25.9302 8.9156C24.9799 9.33744 23.5443 9.30976 22.1093 8.84156L20.9231 8.45458L20.7728 9.40553C20.6904 9.92848 20.575 10.5064 20.5167 10.6895C20.3727 11.1428 22.0064 11.4844 24.3163 11.4844C27.2199 11.4844 28.941 10.725 29.7955 9.06674C30.7613 7.19232 29.966 5.88597 26.9932 4.46395C25.3344 3.6705 25.0468 3.10202 26.026 2.55118C26.6382 2.20685 28.3495 2.21321 29.6576 2.56513C30.2138 2.71483 30.2864 2.60409 30.5666 1.17777C30.7035 0.481321 30.6581 0.3876 30.0943 0.203645C29.1928 -0.0906436 25.9558 -0.0299404 24.8732 0.301262ZM36.2746 0.137609C35.9927 0.187239 35.5997 0.384319 35.4012 0.575453C35.1344 0.832211 31.385 8.28908 30.0449 11.2281C29.9577 11.4194 30.3843 11.4844 31.7254 11.4844L33.5224 11.4844L33.8605 10.6128L34.1982 9.74124L36.3818 9.68239L38.5652 9.62353L38.7137 10.1951C39.0623 11.5375 38.9837 11.4844 40.6193 11.4844L42.15 11.4844L41.9952 10.8179C41.9102 10.4512 41.2948 7.89041 40.6276 5.12697L39.4148 0.102541L38.101 0.0748554C37.3784 0.0596796 36.5564 0.0877753 36.2746 0.137609ZM37.5891 5.48586L38.0391 7.38284L36.6114 7.38284C35.3465 7.38284 35.2025 7.34182 35.3515 7.02395C35.4437 6.82667 35.8525 5.88822 36.2595 4.93891C36.6666 3.9896 37.0308 3.29746 37.0693 3.40082C37.1075 3.50418 37.3414 4.44262 37.5891 5.48586Z" fill="#FEFEFE"/>
</svg>
