<svg width="444" height="153" viewBox="0 0 444 153" fill="none" xmlns="http://www.w3.org/2000/svg">
<path d="M56.3594 88.5977H19.8359L19.6406 68.4805H50.3047C55.7083 68.4805 60.1354 67.7969 63.5859 66.4297C67.0365 64.9974 69.6081 62.9466 71.3008 60.2773C73.0586 57.543 73.9375 54.2227 73.9375 50.3164C73.9375 45.8893 73.0911 42.3086 71.3984 39.5742C69.7708 36.8398 67.1992 34.8542 63.6836 33.6172C60.2331 32.3802 55.7734 31.7617 50.3047 31.7617H29.9922V151H0.695312V8.8125H50.3047C58.5729 8.8125 65.9622 9.59375 72.4727 11.1562C79.0482 12.7188 84.6146 15.0951 89.1719 18.2852C93.7292 21.4753 97.2122 25.5117 99.6211 30.3945C102.03 35.2122 103.234 40.9414 103.234 47.582C103.234 53.4414 101.9 58.8451 99.2305 63.793C96.6263 68.7409 92.4922 72.7773 86.8281 75.9023C81.2292 79.0273 73.9049 80.7526 64.8555 81.0781L56.3594 88.5977ZM55.0898 151H11.8281L23.2539 128.148H55.0898C60.2331 128.148 64.4323 127.335 67.6875 125.707C70.9427 124.014 73.3516 121.736 74.9141 118.871C76.4766 116.007 77.2578 112.719 77.2578 109.008C77.2578 104.841 76.5417 101.228 75.1094 98.168C73.7422 95.1081 71.5286 92.7643 68.4688 91.1367C65.4089 89.444 61.3724 88.5977 56.3594 88.5977H28.1367L28.332 68.4805H63.4883L70.2266 76.3906C78.8854 76.2604 85.8516 77.7904 91.125 80.9805C96.4635 84.1055 100.337 88.1745 102.746 93.1875C105.22 98.2005 106.457 103.572 106.457 109.301C106.457 118.415 104.471 126.098 100.5 132.348C96.5286 138.533 90.7018 143.188 83.0195 146.312C75.4023 149.438 66.0924 151 55.0898 151ZM183.703 127.172V80.1016C183.703 76.7161 183.15 73.819 182.043 71.4102C180.936 68.9362 179.211 67.0156 176.867 65.6484C174.589 64.2812 171.626 63.5977 167.98 63.5977C164.855 63.5977 162.154 64.151 159.875 65.2578C157.596 66.2995 155.839 67.8294 154.602 69.8477C153.365 71.8008 152.746 74.112 152.746 76.7812H124.621C124.621 72.2891 125.663 68.0247 127.746 63.9883C129.829 59.9518 132.857 56.4036 136.828 53.3438C140.799 50.2188 145.52 47.7773 150.988 46.0195C156.522 44.2617 162.707 43.3828 169.543 43.3828C177.746 43.3828 185.038 44.75 191.418 47.4844C197.798 50.2188 202.811 54.3203 206.457 59.7891C210.168 65.2578 212.023 72.0938 212.023 80.2969V125.512C212.023 131.306 212.382 136.059 213.098 139.77C213.814 143.415 214.855 146.605 216.223 149.34V151H187.805C186.438 148.135 185.396 144.555 184.68 140.258C184.029 135.896 183.703 131.534 183.703 127.172ZM187.414 86.6445L187.609 102.562H171.887C168.176 102.562 164.953 102.986 162.219 103.832C159.484 104.678 157.238 105.883 155.48 107.445C153.723 108.943 152.421 110.701 151.574 112.719C150.793 114.737 150.402 116.951 150.402 119.359C150.402 121.768 150.956 123.949 152.062 125.902C153.169 127.79 154.764 129.288 156.848 130.395C158.931 131.436 161.372 131.957 164.172 131.957C168.404 131.957 172.082 131.111 175.207 129.418C178.332 127.725 180.741 125.642 182.434 123.168C184.191 120.694 185.103 118.35 185.168 116.137L192.59 128.051C191.548 130.72 190.116 133.487 188.293 136.352C186.535 139.216 184.289 141.918 181.555 144.457C178.82 146.931 175.533 148.982 171.691 150.609C167.85 152.172 163.293 152.953 158.02 152.953C151.314 152.953 145.227 151.618 139.758 148.949C134.354 146.215 130.057 142.471 126.867 137.719C123.742 132.901 122.18 127.432 122.18 121.312C122.18 115.779 123.221 110.863 125.305 106.566C127.388 102.27 130.448 98.6562 134.484 95.7266C138.586 92.7318 143.697 90.4857 149.816 88.9883C155.936 87.4258 163.033 86.6445 171.105 86.6445H187.414ZM261.242 67.8945V151H233.117V45.3359H259.484L261.242 67.8945ZM257.141 94.457H249.523C249.523 86.6445 250.533 79.6133 252.551 73.3633C254.569 67.0482 257.401 61.6771 261.047 57.25C264.693 52.7578 269.022 49.3398 274.035 46.9961C279.113 44.5872 284.777 43.3828 291.027 43.3828C295.975 43.3828 300.5 44.099 304.602 45.5312C308.703 46.9635 312.219 49.2422 315.148 52.3672C318.143 55.4922 320.422 59.6263 321.984 64.7695C323.612 69.9128 324.426 76.1953 324.426 83.6172V151H296.105V83.5195C296.105 78.832 295.454 75.1862 294.152 72.582C292.85 69.9779 290.93 68.1549 288.391 67.1133C285.917 66.0065 282.857 65.4531 279.211 65.4531C275.435 65.4531 272.147 66.2018 269.348 67.6992C266.613 69.1966 264.335 71.2799 262.512 73.9492C260.754 76.5534 259.419 79.6133 258.508 83.1289C257.596 86.6445 257.141 90.4206 257.141 94.457ZM373.938 0.902344V151H345.812V0.902344H373.938ZM440.539 45.3359L394.641 97.6797L370.031 122.582L359.777 102.27L379.309 77.4648L406.75 45.3359H440.539ZM411.34 151L380.09 102.172L399.523 85.1797L443.762 151H411.34Z" fill="url(#paint0_linear_6233_7)"/>
<defs>
<linearGradient id="paint0_linear_6233_7" x1="12.5" y1="18.5" x2="442" y2="151" gradientUnits="userSpaceOnUse">
<stop stop-color="#00BCDF"/>
<stop offset="1" stop-color="#00D3A1"/>
</linearGradient>
</defs>
</svg>
