<svg width="400" height="400" viewBox="0 0 400 400" fill="none" xmlns="http://www.w3.org/2000/svg">
<circle cx="200" cy="200" r="200" fill="url(#paint0_linear_6238_5)"/>
<path d="M204.492 205.598H167.969L167.773 185.48H198.438C203.841 185.48 208.268 184.797 211.719 183.43C215.169 181.997 217.741 179.947 219.434 177.277C221.191 174.543 222.07 171.223 222.07 167.316C222.07 162.889 221.224 159.309 219.531 156.574C217.904 153.84 215.332 151.854 211.816 150.617C208.366 149.38 203.906 148.762 198.438 148.762H178.125V268H148.828V125.812H198.438C206.706 125.812 214.095 126.594 220.605 128.156C227.181 129.719 232.747 132.095 237.305 135.285C241.862 138.475 245.345 142.512 247.754 147.395C250.163 152.212 251.367 157.941 251.367 164.582C251.367 170.441 250.033 175.845 247.363 180.793C244.759 185.741 240.625 189.777 234.961 192.902C229.362 196.027 222.038 197.753 212.988 198.078L204.492 205.598ZM203.223 268H159.961L171.387 245.148H203.223C208.366 245.148 212.565 244.335 215.82 242.707C219.076 241.014 221.484 238.736 223.047 235.871C224.609 233.007 225.391 229.719 225.391 226.008C225.391 221.841 224.674 218.228 223.242 215.168C221.875 212.108 219.661 209.764 216.602 208.137C213.542 206.444 209.505 205.598 204.492 205.598H176.27L176.465 185.48H211.621L218.359 193.391C227.018 193.26 233.984 194.79 239.258 197.98C244.596 201.105 248.47 205.174 250.879 210.188C253.353 215.201 254.59 220.572 254.59 226.301C254.59 235.415 252.604 243.098 248.633 249.348C244.661 255.533 238.835 260.188 231.152 263.312C223.535 266.438 214.225 268 203.223 268Z" fill="white"/>
<defs>
<linearGradient id="paint0_linear_6238_5" x1="46" y1="54.5" x2="363" y2="300" gradientUnits="userSpaceOnUse">
<stop stop-color="#00BCDF"/>
<stop offset="0.995192" stop-color="#00D3A1"/>
</linearGradient>
</defs>
</svg>
